# xmcd
#
# Track frame offsets: 
#        150
#        17247
#        32322
#
# Disc length: 782 seconds
#
# Revision: 0
# Processed by: cddbd v1.5.2PL0 Copyright (c) Steve Scherf et al.
# Submitted via: ExactAudioCopy v1.0b3
#
DISCID=16030c03
DTITLE=Apulanta - Viivakoodit EP
DYEAR=2001
DGENRE=Alt. Rock
TTITLE0=Viivakoodit
TTITLE1=Vihollinen
TTITLE2=Nukuttaja
EXTD=
EXTT0=
EXTT1=
EXTT2=
PLAYORDER=
